<svg width="20" height="11" viewBox="0 0 20 11" fill="none">
  <path class="svg-stroke" d="M17 5.5L17.6519 6.0837L18.1745 5.5L17.6519 4.9163L17 5.5ZM17 5.5C17.6519 6.0837 17.6517 6.08391 17.6515 6.08413L17.651 6.08464L17.6499 6.0859L17.6467 6.08938L17.637 6.1001L17.6039 6.13596C17.5758 6.16607 17.5358 6.20834 17.4845 6.26101C17.3819 6.3663 17.2337 6.51356 17.0445 6.68879C16.6671 7.03843 16.122 7.50372 15.447 7.96994C14.1138 8.89088 12.1876 9.875 10 9.875C7.81235 9.875 5.88621 8.89088 4.55296 7.96994C3.878 7.50372 3.33292 7.03843 2.95547 6.68879C2.76632 6.51356 2.61809 6.3663 2.5155 6.26101C2.46418 6.20834 2.42419 6.16607 2.39612 6.13596L2.363 6.1001L2.35326 6.08938L2.35012 6.0859L2.34898 6.08464L2.34852 6.08413C2.34833 6.08391 2.34814 6.0837 3 5.5M17 5.5C17.6519 4.9163 17.6517 4.91609 17.6515 4.91587L17.651 4.91536L17.6499 4.9141L17.6467 4.91062L17.637 4.8999L17.6039 4.86404C17.5758 4.83393 17.5358 4.79166 17.4845 4.73899C17.3819 4.6337 17.2337 4.48644 17.0445 4.31121C16.6671 3.96157 16.122 3.49628 15.447 3.03006C14.1138 2.10912 12.1876 1.125 10 1.125C7.81235 1.125 5.88621 2.10912 4.55296 3.03006C3.878 3.49628 3.33292 3.96157 2.95547 4.31121C2.76632 4.48644 2.61809 4.6337 2.5155 4.73899C2.46418 4.79166 2.42419 4.83393 2.39612 4.86404L2.363 4.8999L2.35326 4.91062L2.35012 4.9141L2.34898 4.91536L2.34852 4.91587C2.34833 4.91609 2.34814 4.9163 3 5.5M3 5.5L2.34814 6.0837L1.82548 5.5L2.34814 4.9163L3 5.5Z" stroke="black" stroke-width="1.75"/>
  <circle class="svg-fill" cx="10" cy="5.5" r="2.625" fill="black"/>
</svg>
