<svg width="19" height="14" viewBox="0 0 19 14" >
  <path class="svg-fill" fill-rule="evenodd" clip-rule="evenodd" d="M3.95461 0L2.5404 1.41421L4.14762 3.02144C4.14761 3.02144 4.1476 3.02145 4.14759 3.02145L5.42859 4.30244C5.42859 4.30244 5.4286 4.30243 5.42861 4.30243L6.89191 5.76574L10.2747 9.14849L11.09 9.96385C11.09 9.96386 11.09 9.96386 11.09 9.96386L12.4858 11.3597C12.4858 11.3597 12.4858 11.3597 12.4858 11.3597L14.5612 13.435L15.9754 12.0208L14.4032 10.4486C14.7246 10.2607 15.0222 10.0686 15.2934 9.88122C16.0099 9.38628 16.5875 8.89319 16.9882 8.52203C17.1894 8.33565 17.3483 8.17785 17.4602 8.06297C17.5163 8.00547 17.5607 7.95854 17.5929 7.92396L17.6122 7.90323L17.6322 7.88149L17.6448 7.86757L17.6494 7.8625L17.6512 7.86045L17.652 7.85955C17.6524 7.85913 17.6528 7.85873 16.349 6.69133L17.6528 7.85873L18.6981 6.69133L17.6528 5.52394L16.349 6.69133C17.6528 5.52394 17.6524 5.52354 17.652 5.52312L17.6512 5.52222L17.6494 5.52017L17.6448 5.5151L17.6322 5.50118C17.6222 5.49024 17.6091 5.47601 17.5929 5.45871C17.5607 5.42413 17.5163 5.3772 17.4602 5.3197C17.3483 5.20482 17.1894 5.04702 16.9882 4.86064C16.5875 4.48947 16.0099 3.99639 15.2934 3.50144C13.8936 2.53457 11.7913 1.44133 9.34904 1.44133C8.15042 1.44133 7.0337 1.70465 6.04173 2.08712L3.95461 0ZM7.42325 3.46864C8.03507 3.2958 8.68113 3.19133 9.34904 3.19133C13.215 3.19133 16.349 6.69133 16.349 6.69133C16.349 6.69133 15.0608 8.13006 13.1173 9.16265L11.7372 7.78258C11.8893 7.45027 11.9741 7.0807 11.9741 6.69133C11.9741 5.24159 10.7988 4.06633 9.34907 4.06633C8.9597 4.06633 8.59013 4.15111 8.25782 4.30321L7.42325 3.46864ZM2.49 4.18595C2.18408 4.43316 1.92216 4.66401 1.70989 4.86064C1.50869 5.04702 1.34977 5.20482 1.23784 5.3197C1.18181 5.3772 1.13739 5.42413 1.10514 5.45871C1.08902 5.47601 1.07592 5.49024 1.06593 5.50118L1.05328 5.5151L1.04871 5.52017L1.04687 5.52222L1.04606 5.52312C1.04568 5.52354 1.04532 5.52394 2.34904 6.69133L1.04532 5.52394L0 6.69133L1.04532 7.85873L2.34904 6.69133C1.04532 7.85873 1.04568 7.85913 1.04606 7.85955L1.04687 7.86045L1.04871 7.8625L1.05328 7.86757L1.06593 7.88149C1.07592 7.89243 1.08902 7.90666 1.10514 7.92396C1.13739 7.95854 1.18181 8.00547 1.23784 8.06297C1.34977 8.17785 1.50869 8.33565 1.70989 8.52203C2.11057 8.89319 2.68816 9.38628 3.4047 9.88122C4.80446 10.8481 6.90674 11.9413 9.34904 11.9413C9.63814 11.9413 9.92248 11.926 10.2015 11.8974L8.43101 10.127C4.99885 9.65059 2.34904 6.69133 2.34904 6.69133C2.34904 6.69133 2.86453 6.11564 3.73528 5.43122L2.49 4.18595Z" />
</svg>
