<svg width="12" height="19" viewBox="0 0 12 19">
  <path class="svg-fill" d="M5.93007 10.282C8.76936 10.282 11.0711 7.98033 11.0711 5.141C11.0711 2.30167 8.7694 0 5.93007 0C3.09074 0 0.789062 2.30171 0.789062 5.14104C0.792548 7.97889 3.09222 10.2786 5.93007 10.282ZM5.93007 2.37278C7.45892 2.37278 8.69833 3.61215 8.69833 5.14104C8.69833 6.66993 7.45895 7.9093 5.93007 7.9093C4.40118 7.9093 3.16181 6.66993 3.16181 5.14104C3.16181 3.61215 4.40122 2.37278 5.93007 2.37278Z"/>
  <path class="svg-fill" d="M10.9679 12.7182C11.5266 12.3502 11.8632 11.7263 11.864 11.0572C11.8718 10.502 11.5585 9.99216 11.0597 9.74824C10.5471 9.49224 9.93362 9.54989 9.47779 9.89695C7.36516 11.4371 4.49976 11.4371 2.38713 9.89695C1.93059 9.55171 1.31816 9.49413 0.805265 9.74824C0.306647 9.99212 -0.00682029 10.5014 0.000112686 11.0564C0.00129908 11.7253 0.337827 12.3491 0.896246 12.7174C1.61268 13.1938 2.39288 13.5666 3.21368 13.8247C3.35289 13.8679 3.49656 13.908 3.64474 13.9449L1.25457 16.2821C0.627566 16.8905 0.612402 17.8919 1.22076 18.5189C1.82912 19.1459 2.83055 19.1611 3.45759 18.5527C3.47064 18.5401 3.48347 18.5272 3.49607 18.5141L5.93214 15.9926L8.37296 18.5188C8.9808 19.1463 9.98226 19.1623 10.6098 18.5544C11.2372 17.9466 11.2532 16.9451 10.6453 16.3176C10.6326 16.3045 10.6197 16.2916 10.6065 16.2789L8.22029 13.9441C8.36844 13.9061 8.51266 13.8658 8.65291 13.8231C9.47282 13.566 10.2523 13.194 10.9679 12.7182Z"/>
</svg>
