<svg width="22" height="20" viewBox="0 0 22 20">
  <path class="svg-fill" d="M0.388585 9.18461L5.45783 11.0766L7.41994 17.3867C7.54549 17.7909 8.03968 17.9403 8.3677 17.6721L11.1934 15.3685C11.4896 15.1272 11.9115 15.1152 12.221 15.3398L17.3175 19.04C17.6684 19.2951 18.1656 19.1028 18.2536 18.6788L21.987 0.720095C22.0831 0.256921 21.628 -0.129473 21.187 0.0411007L0.382645 8.06678C-0.130762 8.26478 -0.126289 8.99167 0.388585 9.18461ZM7.10373 10.0694L17.0109 3.96759C17.189 3.85825 17.3722 4.09901 17.2193 4.24083L9.04296 11.8411C8.75556 12.1086 8.57018 12.4666 8.51767 12.8552L8.23915 14.9193C8.20226 15.1949 7.81513 15.2222 7.73909 14.9555L6.66791 11.1917C6.54522 10.7624 6.72401 10.3038 7.10373 10.0694Z"/>
</svg>
