<svg width="22" height="13" viewBox="0 0 22 13" >
  <path class="svg-fill" d="M21.8039 11.1962C21.7448 11.0972 21.379 10.3024 19.6189 8.66875C17.7762 6.95813 18.0238 7.2359 20.2432 4.27806C21.5949 2.47667 22.1353 1.37659 21.9662 0.906308C21.8053 0.458025 20.8111 0.576284 20.8111 0.576284L17.5053 0.595535C17.5053 0.595535 17.2606 0.562533 17.0777 0.671166C16.9003 0.778424 16.7862 1.02594 16.7862 1.02594C16.7862 1.02594 16.2623 2.42029 15.5637 3.60563C14.091 6.10694 13.501 6.23895 13.2604 6.08356C12.7007 5.72191 12.841 4.62871 12.841 3.85315C12.841 1.42885 13.2082 0.418147 12.1246 0.156878C11.7643 0.0702466 11.5003 0.0124924 10.5803 0.00286669C9.4005 -0.00950922 8.4008 0.00699199 7.83563 0.283387C7.45885 0.467651 7.16871 0.878806 7.3461 0.902183C7.56474 0.93106 8.05977 1.03557 8.32242 1.39309C8.66207 1.85375 8.64969 2.89058 8.64969 2.89058C8.64969 2.89058 8.84496 5.74391 8.19453 6.09869C7.74763 6.34208 7.13571 5.84567 5.82248 3.57538C5.15006 2.41342 4.64127 1.1277 4.64127 1.1277C4.64127 1.1277 4.54364 0.888432 4.369 0.760548C4.15724 0.605161 3.86022 0.555658 3.86022 0.555658L0.716735 0.574909C0.716735 0.574909 0.245075 0.58866 0.0718122 0.79355C-0.0821991 0.976439 0.0594363 1.35322 0.0594363 1.35322C0.0594363 1.35322 2.52087 7.11076 5.30682 10.0136C7.86313 12.6744 10.7646 12.4998 10.7646 12.4998H12.0792C12.0792 12.4998 12.4766 12.4558 12.6787 12.2371C12.8658 12.0364 12.8589 11.6596 12.8589 11.6596C12.8589 11.6596 12.8327 9.89534 13.6523 9.63545C14.4595 9.37968 15.4963 11.3406 16.595 12.0955C17.4256 12.6662 18.0568 12.541 18.0568 12.541L20.9953 12.4998C20.9953 12.4998 22.5327 12.4049 21.8039 11.1962Z"/>
</svg>
