<svg width="22" height="16" viewBox="0 0 22 16" >
  <path class="svg-fill" d="M21.065 1.4575C20.4683 0.396 19.8206 0.20075 18.502 0.1265C17.1847 0.037125 13.8724 0 11.0027 0C8.12762 0 4.81387 0.0371251 3.498 0.125125C2.18212 0.20075 1.53312 0.394625 0.930875 1.4575C0.31625 2.51762 0 4.34363 0 7.55838C0 7.56113 0 7.5625 0 7.5625C0 7.56525 0 7.56663 0 7.56663V7.56938C0 10.7704 0.31625 12.6101 0.930875 13.6593C1.53312 14.7207 2.18075 14.9132 3.49662 15.0026C4.81388 15.0796 8.12762 15.125 11.0027 15.125C13.8724 15.125 17.1847 15.0796 18.5034 15.004C19.822 14.9146 20.4696 14.7221 21.0664 13.6606C21.6865 12.6115 22 10.7717 22 7.57075C22 7.57075 22 7.56663 22 7.56388C22 7.56388 22 7.56113 22 7.55975C22 4.34363 21.6865 2.51762 21.065 1.4575ZM8.25 11.6875V3.4375L15.125 7.5625L8.25 11.6875Z"/>
</svg>
