<svg width="142" height="23" viewBox="0 0 142 23" fill="none" xmlns="http://www.w3.org/2000/svg">
    <path d="M0.511719 17.9997H2.28772V15.7437C3.39172 17.3757 5.26372 18.3117 7.42372 18.3117C11.3837 18.3117 14.3597 15.3597 14.3597 11.4237C14.3597 7.55967 11.3357 4.55967 7.44772 4.55967C5.23972 4.55967 3.41572 5.47167 2.28772 7.12767V0.263672H0.511719V17.9997ZM7.32772 6.19167C10.3517 6.19167 12.5597 8.37567 12.5597 11.3997C12.5597 14.4237 10.3277 16.6797 7.37572 16.6797C4.47172 16.6797 2.16772 14.3517 2.16772 11.4477C2.16772 8.49567 4.42372 6.19167 7.32772 6.19167Z" fill="black"/>
    <path d="M30.0231 12.0237C30.0231 10.2717 29.8071 9.23967 29.2311 8.13567C28.0791 5.92767 25.7511 4.55967 23.1591 4.55967C19.3671 4.55967 16.3671 7.55967 16.3671 11.3757C16.3671 15.2637 19.4151 18.3117 23.3031 18.3117C26.1591 18.3117 28.7271 16.4397 29.6871 13.6797H27.8391C27.0951 15.4797 25.2471 16.6797 23.2551 16.6797C20.5431 16.6797 18.2871 14.6157 18.1431 12.0237H30.0231ZM18.1911 10.4157C18.6711 7.89567 20.6631 6.19167 23.1591 6.19167C25.7031 6.19167 27.6471 7.79967 28.2471 10.4157H18.1911Z" fill="black"/>
    <path d="M45.8485 4.87167H44.0725V7.19967C42.7525 5.35167 41.1685 4.55967 38.8885 4.55967C34.9525 4.55967 31.9765 7.53567 31.9765 11.4717C31.9765 15.4077 34.9765 18.3117 39.0325 18.3117C41.2645 18.3117 42.6805 17.5677 44.0725 15.6957V17.9997H45.8485V4.87167ZM38.8645 6.19167C41.8405 6.19167 44.0725 8.42367 44.0725 11.3997C44.0725 14.3757 41.8645 16.6797 39.0085 16.6797C36.1045 16.6797 33.7765 14.3517 33.7765 11.3997C33.7765 8.51967 36.0565 6.19167 38.8645 6.19167Z" fill="black"/>
    <path d="M60.4313 4.87167H58.6553V11.6157C58.6553 13.2237 58.4153 14.2317 57.8633 15.0477C57.1193 16.1037 55.9433 16.6797 54.5513 16.6797C53.1353 16.6797 51.9353 16.1037 51.3113 15.1197C50.8553 14.4237 50.6393 13.3437 50.6393 11.9517V4.87167H48.8633V11.9517C48.8633 13.8477 49.1513 15.1437 49.8233 16.1037C50.7833 17.5437 52.3913 18.3117 54.4313 18.3117C56.4713 18.3117 57.7673 17.5917 58.6553 15.9597V17.9997H60.4313V4.87167Z" fill="black"/>
    <path d="M65.0728 17.9997H66.8488V6.47967H69.8008V4.87167H66.8488V0.263672H65.0728V4.87167H62.2408V6.47967H65.0728V17.9997Z" fill="black"/>
    <path d="M73.2537 22.6077H75.1497L82.7337 4.87167H80.8377L76.3977 15.3357L72.2457 4.87167H70.3017L75.3897 17.5677L73.2537 22.6077Z" fill="black"/>
    <path d="M84.248 17.9997H87.44V11.2557C87.44 9.98367 87.56 9.23967 87.872 8.66367C88.328 7.77567 89.1441 7.31967 90.2481 7.31967C92.1201 7.31967 92.84 8.39967 92.84 11.2077V17.9997H96.0321V10.4877C96.0321 8.61567 95.816 7.55967 95.216 6.57567C94.352 5.15967 92.7681 4.36767 90.8241 4.36767C89.4321 4.36767 88.4 4.75167 87.44 5.61567V0.263672H84.248V17.9997Z" fill="#EB5757"/>
    <path d="M111.984 4.70367H109.056V6.47967C107.952 5.01567 106.632 4.39167 104.712 4.39167C100.776 4.39167 97.9444 7.34367 97.9444 11.3997C97.9444 15.4077 100.752 18.3117 104.64 18.3117C106.512 18.3117 107.784 17.7357 109.056 16.2717V17.9997H111.984V4.70367ZM105 7.31967C107.328 7.31967 108.96 8.99967 108.96 11.3997C108.96 13.7757 107.4 15.3837 105.096 15.3837C102.768 15.3837 101.16 13.7997 101.16 11.4717C101.16 9.07167 102.768 7.31967 105 7.31967Z" fill="#EB5757"/>
    <path d="M124.056 13.6317C123.264 14.8557 122.352 15.3837 121.032 15.3837C118.824 15.3837 117.168 13.6557 117.168 11.3277C117.168 8.97567 118.728 7.31967 120.96 7.31967C122.4 7.31967 123.408 7.89567 124.056 9.14367H127.656C127.2 7.84767 126.792 7.17567 125.952 6.35967C124.656 5.08767 122.856 4.39167 120.96 4.39167C117.024 4.39167 113.952 7.43967 113.952 11.3517C113.952 15.2157 117.12 18.3117 121.056 18.3117C124.176 18.3117 126.552 16.6077 127.656 13.6317H124.056Z" fill="#EB5757"/>
    <path d="M129.576 17.9997H132.768V11.7837L137.304 17.9997H141.6L136.08 11.2077L140.832 4.70367H137.016L132.768 10.9677V0.263672H129.576V17.9997Z" fill="#EB5757"/>
</svg>
